<?xml version="1.0" encoding="utf-8"?>
<!-- Generator: Adobe Illustrator 24.2.0, SVG Export Plug-In . SVG Version: 6.00 Build 0)  -->
<svg version="1.1" id="Layer_1" xmlns="http://www.w3.org/2000/svg" xmlns:xlink="http://www.w3.org/1999/xlink" x="0px" y="0px"
	 viewBox="0 0 578 108" style="enable-background:new 0 0 578 108;" xml:space="preserve">
<style type="text/css">
	.st0{fill:#0072CE;}
	.st1{fill:#001E62;}
</style>
<g>
	<g>
		<path class="st0" d="M66.6,75.38L31.67,11.94c-0.25-0.45-0.72-0.73-1.24-0.73H9.99c-0.65,0-1.06,0.69-0.74,1.26l46.01,83.57
			L66.6,75.38z"/>
		<path class="st1" d="M70.52,96.03c4.08,0,8.35-2.51,10.59-6.55l42.76-77.01c0.31-0.57-0.1-1.26-0.74-1.26h-20.47
			c-0.52,0-0.99,0.28-1.24,0.74L55.26,96.03H70.52z"/>
	</g>
	<path class="st1" d="M229.41,23.14V12.62c0-0.78-0.63-1.42-1.42-1.42h-90.63c-0.78,0-1.42,0.63-1.42,1.42V26.5
		c0,0.78,0.63,1.42,1.42,1.42h87.27C227.27,27.92,229.41,25.78,229.41,23.14z"/>
	<path class="st1" d="M155.91,79.32V61.98h68.9c0.78,0,1.42-0.63,1.42-1.42V46.68c0-0.78-0.64-1.42-1.42-1.42l-87.37,0.05
		c-0.78,0-1.42,0.63-1.42,1.42v47.89c0,0.78,0.63,1.42,1.42,1.42h90.56c0.78,0,1.42-0.63,1.42-1.42V80.74
		c0-0.78-0.63-1.42-1.42-1.42H155.91z"/>
	<path class="st1" d="M327.76,12.62v62.41l-55.03-58.79c-3.01-3.21-7.22-5.04-11.62-5.04h-14.76c-0.78,0-1.42,0.63-1.42,1.42v81.99
		c0,0.78,0.63,1.42,1.42,1.42h17.06c0.78,0,1.42-0.63,1.42-1.42V32.26L319.8,91c3.01,3.21,7.22,5.04,11.62,5.04h14.81
		c0.78,0,1.42-0.63,1.42-1.42V12.62c0-0.78-0.63-1.42-1.42-1.42h-17.06C328.39,11.21,327.76,11.84,327.76,12.62z"/>
	<path class="st1" d="M452.52,23.14V12.62c0-0.78-0.63-1.42-1.42-1.42h-87.45c-0.78,0-1.42,0.63-1.42,1.42v10.52
		c0,2.64,2.14,4.77,4.77,4.77h30.42v66.7c0,0.78,0.63,1.42,1.42,1.42h17.06c0.78,0,1.42-0.63,1.42-1.42v-66.7h30.42
		C450.39,27.92,452.52,25.78,452.52,23.14z"/>
	<g>
		<path class="st0" d="M505.97,38.05c2.88-3.08,2.88-7.86,0-10.93l-14.22-15.19c-0.43-0.46-1.03-0.72-1.66-0.72h-24.31
			c-0.74,0-1.13,0.89-0.62,1.43l31.67,33.84c0.34,0.36,0.91,0.36,1.24,0L505.97,38.05z"/>
		<path class="st0" d="M461.28,96.03h18.39c4.4,0,8.61-1.82,11.62-5.04l73.35-78.36c0.51-0.54,0.12-1.43-0.62-1.43h-24.31
			c-0.63,0-1.23,0.26-1.66,0.72l-77.4,82.68C460.15,95.15,460.54,96.03,461.28,96.03z"/>
		<path class="st0" d="M523.44,75.74l18.33,19.58c0.43,0.46,1.03,0.72,1.66,0.72h24.31c0.74,0,1.13-0.89,0.62-1.43l-35.78-38.23
			c-0.34-0.36-0.91-0.36-1.24,0l-7.89,8.43C520.56,67.88,520.56,72.66,523.44,75.74z"/>
	</g>
</g>
</svg>
